<?xml version="1.0" standalone="no"?>
<!DOCTYPE svg PUBLIC "-//W3C//DTD SVG 20010904//EN"
 "http://www.w3.org/TR/2001/REC-SVG-20010904/DTD/svg10.dtd">
<svg version="1.0" xmlns="http://www.w3.org/2000/svg"
 width="2500.000000pt" height="2500.000000pt" viewBox="0 0 2500.000000 2500.000000"
 preserveAspectRatio="xMidYMid meet">

<g transform="translate(0.000000,2500.000000) scale(0.100000,-0.100000)"
fill="#000000" stroke="none">
<path d="M13402 19166 c-34 -8 -88 -28 -120 -44 -31 -16 -1281 -903 -2776
-1971 l-2719 -1941 -1486 -1 c-817 0 -1526 -2 -1576 -5 -270 -16 -484 -190
-546 -444 -21 -82 -21 -4438 0 -4520 50 -205 212 -372 411 -425 47 -13 280
-15 1620 -15 l1565 0 2730 -1951 c1502 -1072 2754 -1961 2783 -1975 103 -49
231 -65 348 -43 216 39 404 221 449 437 13 58 15 938 15 6237 0 5464 -2 6177
-15 6234 -33 137 -135 281 -249 350 -131 78 -296 108 -434 77z m-442 -6666 c0
-2744 -3 -4990 -6 -4990 -3 0 -1066 758 -2362 1684 -1296 925 -2375 1692
-2397 1703 -88 44 -146 57 -250 55 -55 -1 -670 -4 -1367 -7 l-1268 -5 0 1560
0 1560 1263 -4 c694 -2 1295 -7 1335 -11 89 -8 190 12 277 54 33 16 1118 785
2410 1710 1293 924 2353 1680 2358 1680 4 1 7 -2244 7 -4989z"/>
<path d="M19079 17776 c-207 -44 -359 -233 -359 -445 0 -92 21 -157 92 -285
84 -152 246 -478 324 -654 853 -1915 1015 -4174 453 -6295 -227 -857 -575
-1680 -1033 -2440 -125 -208 -145 -286 -110 -437 16 -70 65 -163 112 -213 179
-188 516 -179 676 17 144 176 547 936 749 1411 557 1314 844 2703 850 4120 3
695 -46 1261 -168 1949 -182 1027 -539 2046 -1033 2951 -91 166 -157 239 -254
285 -104 49 -192 59 -299 36z"/>
<path d="M17245 16326 c-178 -57 -297 -193 -326 -374 -17 -105 -1 -186 62
-304 273 -513 449 -963 580 -1482 145 -578 208 -1139 196 -1766 -20 -1064
-267 -2044 -752 -2985 -73 -142 -95 -195 -105 -252 -44 -245 131 -483 384
-525 139 -23 299 33 397 140 110 119 368 658 539 1128 222 611 380 1343 430
1989 5 77 12 166 15 199 22 289 14 784 -21 1156 -80 868 -317 1732 -684 2495
-85 176 -210 402 -246 444 -46 53 -135 110 -206 133 -70 21 -202 23 -263 4z"/>
</g>
</svg>
