<?xml version="1.0" standalone="no"?>
<!DOCTYPE svg PUBLIC "-//W3C//DTD SVG 20010904//EN"
 "http://www.w3.org/TR/2001/REC-SVG-20010904/DTD/svg10.dtd">
<svg version="1.0" xmlns="http://www.w3.org/2000/svg"
 width="360.000000pt" height="360.000000pt" viewBox="0 0 360.000000 360.000000"
 preserveAspectRatio="xMidYMid meet">

<g transform="translate(0.000000,360.000000) scale(0.100000,-0.100000)"
fill="#000000" stroke="none">
<path d="M1526 3575 c-738 -120 -1324 -681 -1488 -1427 -20 -92 -23 -130 -23
-353 0 -237 2 -256 28 -365 15 -64 39 -151 53 -195 28 -88 128 -302 177 -380
103 -164 296 -376 444 -488 236 -179 503 -294 813 -348 115 -21 451 -18 575 5
497 90 928 376 1206 798 273 417 357 938 230 1435 -98 384 -364 765 -701 1006
-118 84 -334 195 -460 236 -213 70 -294 83 -540 87 -163 2 -250 -1 -314 -11z
m576 -205 c680 -133 1192 -674 1289 -1360 18 -130 14 -346 -10 -481 -89 -513
-419 -951 -886 -1174 -352 -169 -733 -204 -1110 -103 -586 157 -1039 644
-1155 1244 -80 413 7 835 247 1199 91 138 292 338 428 427 224 146 434 227
685 264 132 19 374 12 512 -16z"/>
<path d="M2547 2603 c-24 -11 -233 -214 -572 -553 l-535 -535 -173 172 c-94
94 -187 179 -206 188 -47 24 -136 24 -185 0 -123 -59 -169 -205 -102 -319 31
-53 520 -538 566 -562 47 -25 152 -25 200 0 40 21 1246 1220 1288 1280 24 35
27 48 27 121 0 72 -3 86 -28 123 -42 64 -99 95 -177 99 -47 3 -76 -1 -103 -14z"/>
</g>
</svg>
