<?xml version="1.0" standalone="no"?>
<!DOCTYPE svg PUBLIC "-//W3C//DTD SVG 20010904//EN"
 "http://www.w3.org/TR/2001/REC-SVG-20010904/DTD/svg10.dtd">
<svg version="1.0" xmlns="http://www.w3.org/2000/svg"
 width="360.000000pt" height="360.000000pt" viewBox="0 0 360.000000 360.000000"
 preserveAspectRatio="xMidYMid meet">

<g transform="translate(0.000000,360.000000) scale(0.100000,-0.100000)"
fill="#000000" stroke="none">
<path d="M1690 3149 c-599 -48 -1095 -487 -1222 -1082 -31 -146 -31 -398 0
-544 118 -551 552 -971 1102 -1069 126 -22 345 -22 465 0 298 56 534 181 742
394 171 175 286 385 349 636 34 135 43 376 20 516 -73 448 -341 814 -743 1013
-147 74 -312 122 -453 132 -41 3 -95 7 -120 9 -25 2 -88 0 -140 -5z m391 -192
c357 -93 632 -313 793 -635 83 -165 120 -329 120 -527 0 -147 -14 -241 -55
-366 -62 -191 -170 -361 -318 -502 -468 -445 -1206 -435 -1661 22 -183 184
-293 393 -336 643 -22 126 -14 368 15 486 116 461 495 814 962 897 129 22 357
14 480 -18z"/>
<path d="M1226 2464 c-14 -14 -16 -88 -16 -669 0 -581 2 -655 16 -669 13 -14
47 -16 214 -16 194 0 199 1 214 22 14 20 16 99 16 663 0 564 -2 643 -16 663
-15 21 -20 22 -214 22 -167 0 -201 -2 -214 -16z"/>
<path d="M1956 2464 c-14 -14 -16 -89 -16 -673 0 -498 3 -660 12 -669 17 -17
409 -17 426 0 17 17 17 1329 0 1346 -9 9 -69 12 -209 12 -166 0 -200 -2 -213
-16z"/>
</g>
</svg>
