<?xml version="1.0" standalone="no"?>
<!DOCTYPE svg PUBLIC "-//W3C//DTD SVG 20010904//EN"
 "http://www.w3.org/TR/2001/REC-SVG-20010904/DTD/svg10.dtd">
<svg version="1.0" xmlns="http://www.w3.org/2000/svg"
 width="1499.000000pt" height="1470.000000pt" viewBox="0 0 1499.000000 1470.000000"
 preserveAspectRatio="xMidYMid meet">

<g transform="translate(0.000000,1470.000000) scale(0.100000,-0.100000)"
fill="#000000" stroke="none">
<path d="M7330 12129 c-132 -17 -235 -38 -255 -50 -5 -4 -25 -10 -43 -14 -18
-4 -45 -13 -60 -21 -15 -8 -35 -14 -44 -14 -9 0 -19 -4 -23 -9 -3 -5 -19 -12
-35 -16 -17 -4 -30 -10 -30 -15 0 -5 -13 -11 -30 -15 -16 -4 -30 -10 -30 -15
0 -5 -9 -12 -20 -15 -40 -13 -209 -136 -272 -197 -10 -10 -22 -18 -28 -18 -5
0 -10 -3 -10 -7 0 -5 -26 -35 -57 -68 -31 -33 -67 -77 -81 -97 -13 -21 -29
-38 -33 -38 -5 0 -9 -5 -9 -10 0 -9 -35 -65 -50 -80 -11 -11 -110 -216 -110
-228 0 -6 -4 -12 -10 -12 -5 0 -10 -9 -10 -21 0 -12 -6 -35 -14 -52 -17 -38
-32 -94 -54 -197 -11 -55 -16 -150 -19 -352 l-4 -278 544 0 544 0 34 -23 c19
-12 38 -33 44 -45 5 -12 13 -22 17 -22 13 0 9 -86 -5 -112 -16 -32 -43 -59
-75 -75 -19 -10 -145 -13 -563 -13 l-539 0 0 -180 0 -179 528 -1 c291 0 542
-4 560 -9 56 -17 102 -79 102 -138 -1 -55 -44 -113 -100 -135 -40 -15 -99 -17
-567 -17 l-523 -1 0 -175 0 -175 539 0 c418 0 544 -3 563 -13 32 -16 59 -43
75 -75 15 -28 18 -112 4 -112 -5 0 -11 -10 -15 -22 -3 -13 -21 -33 -39 -45
l-33 -23 -547 0 -547 0 0 -180 0 -180 552 -2 c430 -2 552 -6 556 -15 2 -7 9
-13 15 -13 25 -1 67 -77 67 -120 0 -43 -42 -119 -67 -120 -6 0 -13 -6 -15 -12
-4 -10 -126 -14 -557 -16 l-551 -2 3 -428 c4 -429 10 -517 46 -605 6 -16 11
-39 11 -53 0 -13 4 -24 9 -24 5 0 12 -16 16 -36 3 -20 10 -44 15 -53 5 -9 32
-65 61 -124 29 -59 59 -113 66 -119 7 -6 13 -17 13 -24 0 -8 4 -14 9 -14 5 0
12 -8 15 -17 4 -10 19 -32 34 -50 15 -17 37 -45 50 -61 34 -44 121 -132 176
-177 26 -22 57 -48 67 -57 11 -10 21 -18 24 -18 6 0 67 -41 75 -51 3 -3 12 -9
20 -12 8 -4 31 -17 50 -28 62 -37 160 -83 200 -95 14 -4 27 -10 30 -13 5 -7
31 -14 160 -45 30 -8 62 -16 70 -19 8 -3 73 -11 143 -17 130 -10 410 2 432 20
6 4 35 11 65 15 30 4 60 11 65 15 6 4 25 11 43 15 18 4 45 13 60 21 15 8 35
14 44 14 9 0 19 4 23 9 3 5 19 12 35 16 17 4 30 10 30 15 0 5 14 11 30 15 17
4 30 10 30 14 0 3 12 12 28 18 30 14 59 32 80 51 7 6 19 12 27 12 7 0 15 4 17
9 3 9 95 81 102 81 8 0 160 155 197 201 51 63 140 196 169 255 14 27 28 51 33
52 4 2 7 11 7 21 0 9 6 25 14 36 7 11 17 36 21 55 4 19 11 40 15 45 4 6 11 26
15 45 4 19 10 40 14 45 8 14 30 117 41 195 5 36 9 242 9 458 l1 392 -534 0
c-303 0 -545 4 -559 9 -67 26 -107 107 -87 179 14 49 27 65 75 91 39 21 48 21
572 21 l533 0 0 180 0 180 -549 0 -550 0 -36 34 c-41 39 -57 84 -49 136 6 39
55 100 80 100 7 0 14 5 14 10 0 7 188 10 545 10 l545 0 0 175 0 175 -522 0
c-562 0 -574 1 -624 52 -49 49 -51 153 -3 204 12 13 39 28 58 34 22 6 245 10
564 10 l527 0 0 180 0 180 -540 0 c-490 0 -543 2 -568 17 -44 27 -69 61 -76
101 -8 52 7 96 45 135 l32 32 554 3 553 2 -1 243 c0 133 -4 271 -9 307 -13 95
-31 184 -40 195 -5 6 -11 28 -16 49 -4 22 -13 51 -20 65 -8 14 -14 34 -14 43
0 9 -4 19 -9 23 -5 3 -12 19 -16 35 -4 17 -10 30 -15 30 -5 0 -11 14 -15 30
-4 17 -10 30 -15 30 -4 0 -11 12 -15 27 -3 15 -10 30 -13 33 -10 7 -52 68 -52
75 0 3 -5 11 -10 18 -39 46 -50 61 -50 68 0 14 -234 243 -280 274 -25 16 -47
32 -50 35 -14 14 -70 50 -79 50 -5 0 -11 3 -13 8 -11 25 -307 149 -398 167
-19 3 -46 10 -60 15 -28 10 -289 41 -329 39 -14 -1 -87 -10 -161 -20z m240
-1979 c0 -23 -5 -30 -19 -30 -34 0 -51 -11 -51 -34 0 -29 -10 -42 -39 -51 -23
-7 -24 -6 -19 40 8 65 40 93 121 104 4 1 7 -12 7 -29z m70 -119 c0 -49 -29
-87 -78 -101 -52 -14 -54 -13 -50 17 2 21 10 29 35 35 25 6 33 15 38 41 10 43
13 47 36 47 15 0 19 -7 19 -39z m-55 -2841 c0 -20 -6 -26 -28 -28 -29 -4 -31
-6 -41 -54 -5 -21 -12 -28 -31 -28 -22 0 -25 4 -25 36 0 47 15 73 53 90 46 20
72 14 72 -16z m75 -121 c0 -55 -42 -99 -95 -99 -32 0 -36 3 -33 22 2 15 14 26
33 33 37 12 45 22 45 58 0 22 4 27 25 27 23 0 25 -4 25 -41z"/>
<path d="M5163 8033 c4 -652 7 -820 20 -918 21 -155 40 -267 49 -281 4 -5 10
-34 14 -62 3 -29 10 -52 15 -52 4 0 11 -20 15 -45 3 -25 10 -45 14 -45 4 0 11
-17 15 -37 4 -21 10 -42 15 -48 4 -5 11 -21 15 -35 13 -45 92 -210 136 -285
16 -27 35 -61 42 -75 6 -14 16 -30 22 -36 5 -6 17 -22 25 -34 27 -40 136 -184
166 -219 98 -113 101 -115 150 -112 42 2 45 0 42 -21 -2 -18 -8 -22 -28 -20
-23 3 -23 1 15 -37 23 -23 50 -40 63 -41 12 0 22 -6 22 -14 0 -14 44 -66 57
-66 4 0 26 -16 48 -35 58 -51 64 -55 70 -55 8 0 69 -44 73 -52 2 -5 10 -8 17
-8 8 0 20 -6 27 -12 21 -19 50 -37 81 -51 15 -6 27 -15 27 -18 0 -4 14 -10 30
-14 17 -4 30 -10 30 -15 0 -5 14 -11 30 -15 17 -4 30 -10 30 -15 0 -5 13 -11
30 -15 16 -4 32 -11 35 -16 4 -5 14 -9 23 -9 9 -1 35 -9 57 -20 22 -11 46 -19
53 -20 7 0 20 -4 30 -9 67 -36 259 -82 437 -105 55 -8 108 -17 118 -21 16 -7
17 -45 17 -605 0 -536 -2 -598 -16 -604 -9 -3 -94 -6 -189 -6 -188 0 -310 -12
-365 -36 -77 -34 -165 -80 -188 -99 -53 -43 -162 -159 -162 -172 0 -3 -13 -27
-29 -53 -16 -25 -32 -61 -36 -78 -3 -18 -10 -32 -14 -32 -4 0 -13 -37 -20 -82
-7 -46 -15 -93 -18 -105 l-5 -23 1312 0 1313 0 -7 71 c-9 100 -67 260 -112
310 -8 8 -14 18 -14 22 0 9 -130 137 -139 137 -4 0 -16 9 -26 20 -10 11 -24
20 -32 20 -7 0 -13 4 -13 9 0 5 -13 12 -30 16 -16 4 -30 10 -30 14 0 6 -19 13
-125 43 -16 5 -136 12 -265 16 l-235 7 0 615 0 615 35 7 c19 4 69 14 110 22
41 8 88 19 103 25 16 6 39 11 53 11 13 0 24 4 24 9 0 6 20 13 45 17 25 3 45
10 45 14 0 5 15 11 33 15 50 10 229 93 270 125 12 10 36 21 54 24 23 5 34 15
41 36 9 24 15 28 47 27 20 -1 39 3 43 8 4 6 30 25 57 44 28 19 66 48 85 66 19
17 48 37 64 45 16 8 31 21 34 29 3 8 21 28 39 44 19 17 32 36 29 43 -7 18 23
42 33 26 6 -9 15 -7 37 10 38 30 44 39 38 63 -8 31 31 75 66 75 19 0 35 9 53
33 13 17 35 43 47 57 12 14 36 46 52 73 16 26 34 47 39 47 5 0 9 6 9 14 0 8 6
21 13 28 18 21 36 50 50 81 6 15 15 27 19 27 4 0 8 6 8 14 0 8 6 21 13 28 13
14 35 59 86 173 18 39 35 77 40 85 5 9 12 30 15 48 4 17 12 34 17 37 5 4 9 15
9 27 0 11 6 34 14 51 24 54 57 196 83 352 14 86 17 221 20 953 l3 852 -140 0
-140 0 -4 -817 c-4 -895 -7 -956 -61 -1143 -8 -25 -17 -62 -20 -82 -4 -21 -11
-38 -16 -38 -5 0 -9 -10 -9 -22 0 -13 -7 -36 -15 -52 -8 -15 -15 -33 -15 -38
0 -29 -143 -315 -169 -338 -3 -3 -15 -22 -26 -44 -11 -21 -25 -41 -32 -43 -7
-3 -13 -9 -13 -14 0 -13 -39 -68 -67 -96 -13 -12 -23 -25 -23 -28 0 -21 -269
-285 -290 -285 -5 0 -10 -4 -10 -8 0 -10 -96 -82 -109 -82 -5 0 -11 -7 -15
-15 -3 -8 -12 -15 -21 -15 -8 0 -15 -4 -15 -9 0 -5 -10 -13 -22 -17 -13 -4
-25 -10 -28 -13 -18 -25 -307 -171 -338 -171 -5 0 -23 -7 -38 -15 -16 -8 -39
-15 -51 -15 -13 0 -23 -4 -23 -9 0 -4 -21 -13 -47 -19 -27 -6 -68 -15 -93 -22
-25 -6 -65 -15 -90 -20 -140 -31 -457 -48 -560 -32 -36 6 -99 16 -140 21 -128
17 -203 31 -214 40 -6 5 -30 12 -53 16 -24 4 -45 10 -48 15 -3 5 -23 11 -45
15 -22 4 -42 11 -46 16 -3 5 -12 9 -21 9 -22 0 -279 122 -293 139 -3 3 -22 15
-42 26 -58 31 -217 145 -260 187 -22 21 -42 38 -44 38 -5 0 -120 116 -174 177
-61 67 -110 131 -110 142 0 6 -4 11 -9 11 -5 0 -24 24 -42 53 -18 28 -39 61
-46 72 -7 11 -16 28 -19 38 -3 9 -10 17 -14 17 -5 0 -11 14 -15 30 -4 17 -10
30 -15 30 -5 0 -11 14 -15 30 -4 17 -10 30 -15 30 -5 0 -11 14 -15 30 -4 17
-11 30 -16 30 -5 0 -9 6 -9 13 -1 6 -9 30 -20 52 -11 22 -19 50 -20 63 0 12
-4 22 -9 22 -6 0 -13 20 -17 45 -3 25 -10 45 -14 45 -5 0 -11 19 -15 43 -4 23
-11 49 -15 57 -8 15 -22 94 -40 225 -4 33 -10 435 -12 892 l-3 833 -148 0
-148 0 4 -797z m2397 -3812 c0 -12 -10 -21 -27 -26 -40 -10 -53 -24 -53 -56 0
-24 -4 -29 -24 -29 -22 0 -23 2 -16 42 10 51 48 88 91 88 22 0 29 -5 29 -19z
m71 -139 c-13 -48 -38 -71 -85 -79 -31 -5 -36 -3 -36 15 0 15 9 21 34 26 35 7
46 21 46 61 0 17 6 25 23 27 28 4 30 -2 18 -50z"/>
</g>
</svg>
