<?xml version="1.0" standalone="no"?>
<!DOCTYPE svg PUBLIC "-//W3C//DTD SVG 20010904//EN"
 "http://www.w3.org/TR/2001/REC-SVG-20010904/DTD/svg10.dtd">
<svg version="1.0" xmlns="http://www.w3.org/2000/svg"
 width="225.000000pt" height="225.000000pt" viewBox="0 0 225.000000 225.000000"
 preserveAspectRatio="xMidYMid meet">

<g transform="translate(0.000000,225.000000) scale(0.100000,-0.100000)"
fill="#000000" stroke="none">
<path d="M995 2053 c-379 -51 -675 -313 -772 -682 -32 -120 -37 -332 -11 -447
78 -344 337 -615 673 -705 105 -28 316 -31 419 -6 91 23 186 61 266 107 88 52
213 160 234 203 15 32 15 40 2 71 -16 39 -42 56 -85 56 -24 0 -47 -15 -105
-68 -120 -109 -230 -166 -378 -196 -98 -20 -169 -20 -266 0 -160 33 -279 101
-396 224 -388 413 -195 1105 348 1246 282 73 562 -29 777 -282 l58 -69 -194
-5 c-188 -5 -194 -6 -219 -29 -35 -33 -36 -92 -1 -126 l24 -25 276 0 c303 0
320 3 368 59 45 53 49 86 45 368 -3 249 -4 264 -24 283 -11 11 -37 23 -57 27
-31 5 -40 1 -67 -25 l-30 -30 0 -177 0 -176 -86 91 c-135 141 -247 217 -401
271 -111 39 -284 57 -398 42z"/>
</g>
</svg>
